<svg xmlns="http://www.w3.org/2000/svg" version="1.1" xmlns:xlink="http://www.w3.org/1999/xlink" width="1000" height="1000"><style>
    #light-icon {
      display: inline;
    }
    #dark-icon {
      display: none;
    }

    @media (prefers-color-scheme: dark) {
      #light-icon {
        display: none;
      }
      #dark-icon {
        display: inline;
      }
    }
  </style><g id="light-icon"><svg xmlns="http://www.w3.org/2000/svg" version="1.1" xmlns:xlink="http://www.w3.org/1999/xlink" width="1000" height="1000"><g clip-path="url(#SvgjsClipPath1140)"><rect width="1000" height="1000" fill="#ffffff"></rect><g transform="matrix(0.68359375,0,0,0.68359375,150,150)"><svg xmlns="http://www.w3.org/2000/svg" version="1.1" xmlns:xlink="http://www.w3.org/1999/xlink" width="1024" height="1024"><svg version="1.1" width="1024" height="1024" id="svg102" xml:space="preserve" inkscape:version="1.4.2 (f4327f4, 2025-05-13)" xmlns:inkscape="http://www.inkscape.org/namespaces/inkscape" xmlns:sodipodi="http://sodipodi.sourceforge.net/DTD/sodipodi-0.dtd" xmlns="http://www.w3.org/2000/svg" xmlns:svg="http://www.w3.org/2000/svg"><defs id="defs102"><clipPath id="SvgjsClipPath1140"><rect width="1000" height="1000" x="0" y="0" rx="350" ry="350"></rect></clipPath></defs><sodipodi:namedview id="namedview102" bordercolor="#000000" borderopacity="0.25" inkscape:showpageshadow="2" inkscape:pageopacity="0.0" inkscape:pagecheckerboard="0" inkscape:deskcolor="#d1d1d1" inkscape:zoom="0.45093327" inkscape:cx="-304.92317" inkscape:cy="644.21949" inkscape:window-width="1920" inkscape:window-height="991" inkscape:window-x="-9" inkscape:window-y="-9" inkscape:window-maximized="1" inkscape:current-layer="svg102"></sodipodi:namedview><path d="m 311.06958,133.58645 c 40.37568,-0.15757 80.75128,-0.27591 121.1272,-0.34843 18.75009,-0.0346 37.49999,-0.0817 56.24996,-0.15889 16.35534,-0.0673 32.71054,-0.11048 49.06602,-0.12541 8.64845,-0.009 17.2965,-0.029 25.94483,-0.0783 8.16553,-0.0462 16.33053,-0.0596 24.49617,-0.0496 4.37363,-0.003 8.74721,-0.0386 13.1207,-0.0761 63.76779,0.21965 122.90665,30.53308 167.84374,74.38949 46.95812,47.57569 67.64824,109.75023 67.24826,175.546 0.0179,2.86935 0.0347,5.7387 0.0525,8.695 -0.0348,16.96026 -1.36597,32.76584 -5.09616,49.30663 -0.87555,4.20866 -0.87555,4.20866 -1.76877,8.50235 -14.65586,59.51373 -55.34422,114.8912 -107.85116,146.7203 -51.76379,29.30888 -98.6645,38.35317 -157.83204,37.83592 -4.51094,-0.0226 -9.02189,-0.043 -13.53284,-0.0612 -10.94721,-0.0452 -21.89298,-0.13299 -32.84035,-0.21901 0,-13.31515 0,-26.63031 0,-40.34896 -4.92384,0.0693 -4.92384,0.0693 -9.94714,0.14011 -11.05277,0.0157 -21.68726,-0.96802 -32.64343,-2.38171 -1.26986,-19.83806 -1.896,-35.74703 11.20804,-51.55701 12.47509,-13.24457 25.18313,-23.42847 43.67033,-25.55575 2.6864,-0.0303 5.3728,-0.0603 8.14061,-0.0915 2.20056,-0.0444 2.20056,-0.0444 4.44556,-0.0897 4.64472,-0.0908 9.28848,-0.13988 13.93388,-0.1818 45.04359,-0.52519 82.00926,-7.77237 116.34475,-39.1406 25.47884,-26.31019 36.725,-62.12567 36.47322,-98.2258 -1.40244,-34.33127 -17.27725,-67.14876 -41.85833,-90.99744 -27.31535,-22.25342 -59.10983,-31.35669 -93.74478,-31.54889 -2.70481,-0.0402 -5.4096,-0.0805 -8.19637,-0.12195 -8.5634,-0.1206 -17.12654,-0.19703 -25.69045,-0.27209 -5.83757,-0.0744 -11.67509,-0.15174 -17.51257,-0.23204 -14.24331,-0.18965 -28.48666,-0.34315 -42.73067,-0.46846 -0.74894,-1.54989 -1.49789,-3.09979 -2.26952,-4.69665 -0.99347,-2.0274 -1.98695,-4.0548 -3.01052,-6.14363 -0.98011,-2.01223 -1.96022,-4.02445 -2.97002,-6.09766 -3.19639,-5.91967 -6.70363,-10.1906 -11.92442,-14.44458 0.11703,3.00804 0.11703,3.00804 0.23642,6.07686 0.5948,26.56775 -2.90954,47.18033 -20.4109,67.89623 -18.78755,18.50472 -41.5611,21.21808 -66.91553,21.14643 -3.69488,0.0177 -3.69488,0.0177 -7.46439,0.0356 -5.17287,0.0143 -10.34582,0.0114 -15.51867,-0.008 -7.88563,-0.0191 -15.76764,0.0456 -23.65291,0.11657 -5.04946,0.004 -10.09892,0.002 -15.14838,-0.004 -2.33777,0.0252 -4.67555,0.0504 -7.08417,0.0763 -14.83592,-0.14079 -24.02794,-2.61104 -36.81984,-10.15474 -5.69184,-2.43909 -5.69184,-2.43909 -11.20804,-2.24161 -18.31159,8.63802 -32.44512,22.36849 -44.83218,38.10735 -7.08608,-3.07064 -8.95009,-4.45871 -13.44965,-11.20805 3.69865,-4.43838 7.39731,-8.87677 11.20804,-13.44965 -6.65758,-2.95892 -13.31516,-5.91785 -20.17448,-8.96644 1.47946,-4.43838 2.95892,-8.87677 4.48322,-13.44965 2.21919,0.73973 4.43838,1.47946 6.72482,2.24161 14.72845,4.0518 24.74299,4.03198 38.10736,-3.36241 3.01145,-1.83129 6.00879,-3.68704 8.96643,-5.60403 -1.13434,-4.86147 -2.24124,-8.96571 -4.48322,-13.44965 -1.57777,-10.4886 -2.23289,-20.40191 2.79326,-29.98152 4.0517,-5.24008 8.34187,-10.0428 12.89801,-14.85066 3.27188,-3.64004 6.5408,-7.28274 9.80704,-10.92784 1.69329,-1.85222 3.38658,-3.70443 5.13118,-5.61278 7.16779,-8.0428 13.89561,-16.4121 20.61229,-24.83282 4.79845,-5.70034 4.79845,-5.70034 10.58854,-10.426 7.29842,-8.73231 7.15592,-15.18964 7.23926,-26.23657 0.0564,-1.76697 0.11269,-3.53395 0.17075,-5.35447 0.13126,-4.33171 0.197,-8.66532 0.24955,-12.9987 z" fill="#2e4c6c" id="path2" style="stroke-width:2.24161"></path><path d="m 447.80772,319.63999 c 0.52403,33.08552 0.91911,66.17049 1.16143,99.25932 0.11551,15.36459 0.27293,30.7266 0.52963,46.08954 0.24759,14.82495 0.37757,29.64793 0.43572,44.47504 0.0414,5.65772 0.12235,11.3153 0.24327,16.97188 0.16267,7.92412 0.18515,15.83715 0.17474,23.76266 0.0806,2.34118 0.16119,4.68234 0.24422,7.09445 -0.0949,6.67813 -0.39102,11.64894 -2.78901,17.89052 -6.80312,6.11567 -14.05341,9.85214 -22.41609,13.44966 -3.44148,1.51703 -3.44148,1.51703 -6.95249,3.0647 -8.52987,1.86231 -16.57273,1.9032 -25.27064,1.69872 -1.64994,-0.0202 -3.29989,-0.0406 -4.99984,-0.0612 -4.03113,-0.0525 -8.06188,-0.1327 -12.09242,-0.219 0.0441,10.64161 0.16159,21.27921 0.34204,31.91939 0.0514,3.60592 0.0841,7.21215 0.0963,10.81838 0.12508,30.87758 4.46932,57.61551 25.29636,81.98673 13.37328,12.52322 29.61959,21.88663 45.99676,29.94651 0.5904,7.8891 0.94553,15.7725 1.26091,23.67699 0.25356,3.33097 0.25356,3.33097 0.51224,6.7292 0.48252,16.1377 0.48252,16.1377 -5.41795,23.38749 -5.29741,4.20703 -10.7451,7.70636 -16.52968,11.21298 -4.29611,2.9077 -8.58647,5.82388 -12.87174,8.74752 -4.57719,3.02308 -9.15973,6.03806 -13.74737,9.04525 -15.62958,10.26377 -31.01371,20.72661 -46.08323,31.79899 -8.25885,6.03822 -16.65448,11.86569 -25.08785,17.65651 -2.37089,1.64271 -2.37089,1.64271 -4.78969,3.31863 -11.46948,7.88941 -11.46948,7.88941 -13.98378,7.88941 0,-181.97381 0,-363.94762 0,-551.43579 30.32897,-0.73973 60.65793,-1.47946 91.90596,-2.24161 15.3835,-4.73338 28.73694,-17.93287 44.83218,-17.93287 z" fill="#2d4b6c" id="path3" style="stroke-width:2.24161"></path><path d="m 535.23047,299.46551 c 5.31008,2.3474 9.91286,4.73534 14.85066,7.70553 1.47513,0.85911 2.95025,1.71821 4.47008,2.60335 5.5385,3.25025 11.0413,6.55677 16.545,9.8656 3.7178,2.21703 3.7178,2.21703 7.51071,4.47884 8.34413,4.97644 16.67068,9.9817 24.99262,14.99514 1.3623,0.81827 2.7246,1.63654 4.12818,2.4796 41.86189,25.19438 41.86189,25.19438 46.30802,34.08664 0.94321,10.61108 -0.38913,16.12585 -6.72482,24.6577 -5.05657,3.58892 -9.87732,6.67236 -15.2447,9.70196 -1.50821,0.88164 -3.01642,1.76328 -4.57033,2.67163 -4.82215,2.81279 -9.66441,5.58843 -14.50961,8.36129 -6.3022,3.64327 -12.59556,7.3016 -18.88731,10.96287 -1.54739,0.89676 -3.09478,1.79352 -4.68906,2.71746 -13.19698,7.69215 -26.02204,15.88191 -38.78753,24.26722 -10.16225,6.45689 -16.53701,10.07252 -28.84156,8.56584 -7.48162,-4.82149 -10.61337,-7.1824 -13.44966,-15.69126 -0.24391,-4.44311 -0.3562,-8.89388 -0.39677,-13.34349 -0.0288,-2.74579 -0.0575,-5.49159 -0.0872,-8.32059 -0.0184,-3.00013 -0.035,-6.00028 -0.0502,-9.00044 -0.009,-1.51314 -0.0184,-3.02629 -0.0277,-4.58529 -0.0467,-8.00679 -0.0788,-16.01349 -0.0998,-24.02039 -0.0248,-8.25905 -0.10195,-16.51675 -0.19092,-24.77532 -0.0587,-6.36153 -0.0774,-12.72274 -0.0854,-19.08451 -0.011,-3.04401 -0.0369,-6.08801 -0.0785,-9.13176 -0.0547,-4.26446 -0.0471,-8.52958 -0.037,-12.79438 -0.0132,-2.42379 -0.0263,-4.84758 -0.0399,-7.34481 1.357,-8.16517 4.37338,-11.88698 10.05979,-17.78682 6.39744,-3.19872 10.80743,-2.84245 17.93287,-2.24161 z" fill="#67c246" id="path4" style="stroke-width:2.24161"></path><path d="m 478.34088,604.46442 c 8.56906,2.37754 16.67069,3.42006 25.50706,4.34312 0.13127,8.96629 0.21022,17.93234 0.2802,26.8993 0.0376,2.5226 0.0751,5.0452 0.11383,7.64424 0.16571,28.33637 -6.06156,47.08027 -25.75223,67.86996 -8.63481,8.13812 -17.61331,15.85025 -28.44042,20.87499 -17.83153,-1.11447 -34.28092,-20.1727 -45.71656,-32.76602 -13.06129,-19.38538 -13.71807,-36.16486 -13.12567,-59.28005 0.0451,-3.03983 0.086,-6.07972 0.12259,-9.11967 0.105,-7.37594 0.25201,-14.74848 0.43782,-22.12275 2.2452,-0.40743 4.49039,-0.81486 6.80363,-1.23464 3.00942,-0.56821 6.01866,-1.13742 9.02773,-1.70747 1.47224,-0.2644 2.94448,-0.5288 4.46133,-0.8012 7.73527,-1.48609 14.65178,-3.35464 21.85131,-6.58911 14.88494,-6.47013 29.81421,1.1116 44.42938,5.9893 z" fill="#6bc84f" id="path6" style="stroke-width:2.24161"></path><path d="m 725.76722,516.90157 c 19.233,0 38.46601,0 58.28183,0 0,22.41609 0,22.41609 -3.86152,28.95703 -1.73086,1.67885 -3.46171,3.35769 -5.24501,5.08741 -1.86378,1.8551 -3.72756,3.71021 -5.64781,5.62153 -2.68297,2.55727 -2.68297,2.55727 -5.42014,5.16621 -1.25696,1.38121 -2.51393,2.76243 -3.80898,4.1855 -20.86623,22.81094 -49.21873,36.87156 -76.88894,49.61311 -3.04705,1.42167 -3.04705,1.42167 -6.15567,2.87206 -20.0197,8.67849 -41.52511,13.37344 -63.33421,12.8192 0,-1.47946 0,-2.95892 0,-4.48321 2.329,-0.81486 4.658,-1.62972 7.05757,-2.46928 30.71174,-10.97348 59.55286,-24.00081 77.77332,-52.39761 4.5608,-9.95362 4.55851,-19.45314 4.83347,-30.31425 7.39731,0 14.79462,0 22.41609,0 0,-8.13704 0,-16.27408 0,-24.6577 z" fill="#69bf4b" id="path10" style="stroke-width:2.24161"></path><path d="m 478.34088,604.46442 c 8.56906,2.37754 16.67069,3.42006 25.50706,4.34312 0.13127,8.96629 0.21022,17.93234 0.2802,26.8993 0.0376,2.5226 0.0751,5.0452 0.11383,7.64424 0.16571,28.33637 -6.06156,47.08027 -25.75223,67.86996 -8.63481,8.13812 -17.61331,15.85025 -28.44042,20.87499 -17.83153,-1.11447 -34.28092,-20.1727 -45.71656,-32.76602 -13.06129,-19.38538 -13.71807,-36.16486 -13.12567,-59.28005 0.0451,-3.03983 0.086,-6.07972 0.12259,-9.11967 0.105,-7.37594 0.25201,-14.74848 0.43782,-22.12275 2.2452,-0.40743 4.49039,-0.81486 6.80363,-1.23464 3.00942,-0.56821 6.01866,-1.13742 9.02773,-1.70747 1.47224,-0.2644 2.94448,-0.5288 4.46133,-0.8012 7.73527,-1.48609 14.65178,-3.35464 21.85131,-6.58911 14.88494,-6.47013 29.81421,1.1116 44.42938,5.9893 z m -51.88099,11.61959 c -7.00725,2.13312 -13.98611,3.02229 -21.24274,3.93157 -0.33016,8.12485 -0.52616,16.24793 -0.70051,24.3775 -0.0939,2.2712 -0.18782,4.54241 -0.28458,6.88244 -0.31383,19.58339 4.48627,33.73941 17.3068,48.66743 2.46192,2.04582 2.46192,2.04582 4.97357,4.13297 1.64128,1.41011 3.28256,2.82022 4.97357,4.27306 5.52043,3.85674 9.74374,6.50025 16.32171,8.05578 15.59403,-6.89498 30.92414,-20.8836 38.24198,-36.43106 2.30969,-6.75208 2.62092,-11.90495 2.5448,-19.02249 -0.0217,-3.58668 -0.0217,-3.58668 -0.0438,-7.24582 -0.0376,-2.47203 -0.0751,-4.94406 -0.11383,-7.491 -0.0202,-2.51538 -0.0405,-5.03075 -0.0613,-7.62235 -0.0527,-6.19264 -0.12637,-12.3843 -0.2189,-18.57646 -1.64995,-0.27162 -3.2999,-0.54324 -4.99984,-0.82309 -3.28111,-0.56347 -3.28111,-0.56347 -6.62851,-1.13832 -2.15851,-0.36408 -4.31702,-0.72817 -6.54095,-1.10329 -6.29437,-1.3761 -11.76468,-3.42932 -17.69645,-5.90173 -9.47985,-1.31665 -17.07656,1.73999 -25.83104,5.03486 z" fill="#385172" id="path12" style="stroke-width:2.24161"></path><path d="m 606.96195,133.58645 c 39.89617,-2.39377 81.05497,15.77596 114.79927,35.77599 2.6721,1.55508 5.37916,3.05157 8.11708,4.4876 9.27217,4.88668 16.58126,9.50115 22.78823,18.01824 2.49557,12.71294 0.12501,25.53825 -2.24161,38.10735 -8.13704,0 -16.27408,0 -24.6577,0 0,-8.13704 0,-16.27408 0,-24.6577 -17.75354,0 -35.50708,0 -53.79861,0 0,-8.13704 0,-16.27408 0,-24.65769 8.13704,0 16.27408,0 24.6577,0 -22.36997,-24.08431 -57.76826,-38.98456 -89.66436,-44.83218 0,-0.73973 0,-1.47946 0,-2.24161 z" fill="#67c346" id="path16" style="stroke-width:2.24161"></path><path d="m 345.11401,195.65099 c 9.98054,0.81808 14.30627,3.40803 21.99579,9.66694 5.56784,8.35176 5.33597,12.52412 4.48322,22.41609 -2.77862,6.25188 -5.12098,9.9606 -10.50755,14.15015 -7.76678,2.30905 -15.16149,2.86696 -23.11659,1.54111 -6.299,-4.02064 -10.10832,-6.76699 -13.44965,-13.44965 -0.94302,-6.85711 -1.09903,-13.33216 0,-20.17448 5.46392,-6.72483 5.46392,-6.72483 11.20804,-11.20805 2.24161,-2.24161 2.24161,-2.24161 9.38674,-2.94211 z" fill="#f8f9f8" id="path19" style="stroke-width:2.24161"></path><path d="m 759.39136,467.58617 c 8.13704,0 16.27408,0 24.6577,0 0,8.87677 0,17.75354 0,26.89931 -8.13704,0 -16.27408,0 -24.6577,0 0,-8.87677 0,-17.75355 0,-26.89931 z" fill="#61ae4d" id="path32" style="stroke-width:2.24161"></path><path d="m 757.14975,247.9085 c 8.13704,0 16.27408,0 24.6577,0 0,8.13704 0,16.27408 0,24.6577 -8.13704,0 -16.27408,0 -24.6577,0 0,-8.13704 0,-16.27408 0,-24.6577 z" fill="#6fc14d" id="path35" style="stroke-width:2.24161"></path><path d="m 382.80106,433.96204 c 14.79462,0 29.58924,0 44.83218,0 0,4.43839 0,8.87677 0,13.44965 -14.79462,0 -29.58924,0 -44.83218,0 0,-4.43838 0,-8.87677 0,-13.44965 z" fill="#e7ebee" id="path36" style="stroke-width:2.24161"></path><path d="m 331.24406,433.96204 c 14.05489,0 28.10978,0 42.59057,0 0,4.43839 0,8.87677 0,13.44965 -14.05489,0 -28.10978,0 -42.59057,0 0,-4.43838 0,-8.87677 0,-13.44965 z" fill="#57b34a" id="path38" style="stroke-width:2.24161"></path><path d="m 671.96861,543.80088 c 8.13704,0 16.27408,0 24.6577,0 0,7.39731 0,14.79462 0,22.41609 -8.13704,0 -16.27408,0 -24.6577,0 0,-7.39731 0,-14.79462 0,-22.41609 z" fill="#70cf4a" id="path39" style="stroke-width:2.24161"></path><path d="m 725.76722,469.82778 c 7.39731,0 14.79462,0 22.41609,0 0,7.39731 0,14.79462 0,22.41609 -7.39731,0 -14.79462,0 -22.41609,0 0,-7.39731 0,-14.79462 0,-22.41609 z" fill="#6fc34c" id="path41" style="stroke-width:2.24161"></path><path d="m 268.47901,427.23721 c 7.39731,0 14.79462,0 22.41609,0 0,7.39731 0,14.79462 0,22.41609 -7.39731,0 -14.79462,0 -22.41609,0 0,-7.39731 0,-14.79462 0,-22.41609 z" fill="#ECC260" id="path42" style="fill:#e8b04a;fill-opacity:1;stroke-width:2.24161"></path><path d="m 358.14336,413.78756 c 14.05489,0 28.10978,0 42.59057,0 0,3.69865 0,7.39731 0,11.20804 -14.05489,0 -28.10978,0 -42.59057,0 0,-3.69865 0,-7.3973 0,-11.20804 z" fill="#E49F44" id="path43" style="fill:#e8b04a;fill-opacity:1;stroke-width:2.24161"></path><path d="m 385.04267,391.37147 c 14.05489,0 28.10978,0 42.59057,0 0,3.69865 0,7.39731 0,11.20804 -14.05489,0 -28.10978,0 -42.59057,0 0,-3.69865 0,-7.3973 0,-11.20804 z" fill="#f4f6f7" id="path44" style="stroke-width:2.24161"></path><path d="m 331.24406,391.37147 c 14.05489,0 28.10978,0 42.59057,0 0,3.69865 0,7.39731 0,11.20804 -14.05489,0 -28.10978,0 -42.59057,0 0,-3.69865 0,-7.3973 0,-11.20804 z" fill="#ECA838" id="path45" style="fill:#e8b04a;fill-opacity:1;stroke-width:2.24161"></path><path d="m 358.14336,371.19699 c 14.05489,0 28.10978,0 42.59057,0 0,3.69865 0,7.39731 0,11.20804 -14.05489,0 -28.10978,0 -42.59057,0 0,-3.69865 0,-7.3973 0,-11.20804 z" fill="#3d993b" id="path46" style="stroke-width:2.24161"></path><path d="m 246.06292,407.06273 c 7.39731,0 14.79462,0 22.41609,0 0,6.65758 0,13.31516 0,20.17448 -7.39731,0 -14.79462,0 -22.41609,0 0,-6.65758 0,-13.31516 0,-20.17448 z" fill="#E9BA51" id="path50" style="fill:#e8b04a;fill-opacity:1;stroke-width:2.24161"></path><path d="m 268.47901,384.64664 c 7.39731,0 14.79462,0 22.41609,0 0,6.65758 0,13.31516 0,20.17448 -7.39731,0 -14.79462,0 -22.41609,0 0,-6.65758 0,-13.31516 0,-20.17448 z" fill="#EABE53" id="path51" style="fill:#e8b04a;fill-opacity:1;stroke-width:2.24161" inkscape:label="path51"></path><path d="m 331.24406,413.78756 c 5.17812,0 10.35623,0 15.69126,0 0,3.69865 0,7.39731 0,11.20804 -5.17811,0 -10.35623,0 -15.69126,0 0,-3.69865 0,-7.3973 0,-11.20804 z" fill="#fafbfb" id="path73" style="stroke-width:2.24161"></path><path d="m 331.24406,371.19699 c 5.17812,0 10.35623,0 15.69126,0 0,3.69865 0,7.39731 0,11.20804 -5.17811,0 -10.35623,0 -15.69126,0 0,-3.69865 0,-7.3973 0,-11.20804 z" fill="#DF9D36" id="path74" style="fill:#e8b04a;fill-opacity:1;stroke-width:2.24161"></path><path d="m 481.43185,696.23028 c 1.47946,0.73973 2.95892,1.47946 4.48322,2.24161 -2.88091,6.42664 -5.76383,11.15442 -11.20805,15.69126 -1.47946,0 -2.95892,0 -4.48321,0 1.21555,-8.5089 4.93439,-12.26635 11.20804,-17.93287 z" fill="#2b4a74" id="path86" style="stroke-width:2.24161"></path><path d="m 471.03785,617.07829 c 6.63781,1.86818 12.9135,2.68735 19.75835,3.41267 0.10132,7.04535 0.16274,14.09051 0.21721,21.13642 0.0294,1.98217 0.0581,3.96431 0.0881,6.00655 0.12845,22.26563 -4.69543,36.99388 -19.94821,53.3296 -6.68869,6.39462 -13.64364,12.45452 -22.03053,16.40277 -13.81268,-0.8757 -26.55475,-15.85095 -35.41301,-25.74629 -10.11752,-15.23227 -10.62632,-28.41694 -10.16744,-46.57998 0.035,-2.38855 0.0666,-4.77723 0.095,-7.16589 0.0816,-5.7957 0.19525,-11.5888 0.33914,-17.38318 1.73919,-0.32015 3.47837,-0.64029 5.27022,-0.97015 2.33116,-0.44648 4.66219,-0.89375 6.9931,-1.34167 1.1404,-0.20779 2.28082,-0.4155 3.45583,-0.62953 5.99191,-1.16774 11.34955,-2.63595 16.92647,-5.17749 11.53019,-5.08397 23.09472,0.87344 34.4159,4.70617 z m -40.18806,9.13023 c -5.42799,1.67614 -10.83399,2.37478 -16.45507,3.08927 -0.25579,6.3842 -0.40761,12.76702 -0.54262,19.15489 -0.0729,1.78463 -0.14548,3.56927 -0.22035,5.40795 -0.24315,15.3879 3.47512,26.51115 13.40619,38.24101 1.90707,1.60753 1.90707,1.60753 3.85263,3.24754 1.27135,1.108 2.54272,2.21601 3.8526,3.35761 4.2763,3.03048 7.54773,5.10762 12.64317,6.32992 12.07947,-5.41781 23.95446,-16.40956 29.62304,-28.62615 1.78914,-5.30551 2.03021,-9.35443 1.97123,-14.94711 -0.0157,-2.81829 -0.0157,-2.81829 -0.0339,-5.69351 -0.0294,-1.94242 -0.0583,-3.88484 -0.0883,-5.88615 -0.0134,-1.97647 -0.0314,-3.95294 -0.0473,-5.98931 -0.0408,-4.86597 -0.098,-9.73114 -0.16946,-14.59669 -1.2781,-0.2134 -2.55618,-0.42687 -3.87299,-0.64677 -2.5416,-0.44274 -2.5416,-0.44274 -5.13458,-0.89444 -1.67202,-0.28608 -3.34406,-0.57215 -5.06675,-0.86692 -4.87577,-1.08129 -9.11322,-2.69464 -13.70805,-4.63733 -7.34326,-1.03462 -13.22787,1.36722 -20.00925,3.95619 z" fill="#385172" id="path102" style="fill:#ffffff;fill-opacity:1;stroke:none;stroke-width:0;stroke-dasharray:none"></path><path d="m 440.55026,644.95012 c 2.4076,-4.31902 3.61135,-6.47852 5.41118,-6.47852 1.79986,0 3.0036,2.1595 5.41111,6.47852 l 0.62288,1.11737 c 0.68429,1.22733 1.02623,1.84101 1.55977,2.24592 0.53335,0.4049 1.19749,0.5552 2.52612,0.8558 l 1.20966,0.27368 c 4.67512,1.05781 7.01287,1.58672 7.56904,3.37519 0.55617,1.78837 -1.03744,3.65207 -4.22483,7.37908 l -0.82455,0.96427 c -0.90572,1.0591 -1.35869,1.58866 -1.56245,2.24385 -0.20354,0.6552 -0.13517,1.36172 0.002,2.77494 l 0.12463,1.28643 c 0.48186,4.97279 0.72288,7.45918 -0.73312,8.56447 -1.45617,1.10532 -3.64492,0.0975 -8.02238,-1.91787 l -1.13248,-0.52156 c -1.24385,-0.5727 -1.86578,-0.85914 -2.52517,-0.85914 -0.65937,0 -1.28131,0.28644 -2.52518,0.85914 l -1.13246,0.52156 c -4.3775,2.01538 -6.56623,3.02319 -8.02229,1.91787 -1.45604,-1.10529 -1.21511,-3.59168 -0.73321,-8.56447 l 0.12464,-1.28643 c 0.13696,-1.41322 0.20533,-2.11974 0.002,-2.77494 -0.20376,-0.65519 -0.65659,-1.18475 -1.56231,-2.24385 l -0.8246,-0.96427 c -3.1873,-3.72701 -4.78095,-5.59071 -4.22481,-7.37908 0.55617,-1.78847 2.89381,-2.31738 7.56909,-3.37519 l 1.20957,-0.27368 c 1.32856,-0.3006 1.99283,-0.4509 2.5262,-0.8558 0.53337,-0.40491 0.87548,-1.01857 1.55965,-2.24592 z" fill="#1c274c" id="path1" style="fill:#ffffff;fill-opacity:1;stroke-width:1.90077"></path></svg></svg></g></g></svg></g><g id="dark-icon"><svg xmlns="http://www.w3.org/2000/svg" version="1.1" xmlns:xlink="http://www.w3.org/1999/xlink" width="1000" height="1000"><g clip-path="url(#SvgjsClipPath1141)"><rect width="1000" height="1000" fill="#ffffff"></rect><g transform="matrix(0.78125,0,0,0.78125,100,100)"><svg xmlns="http://www.w3.org/2000/svg" version="1.1" xmlns:xlink="http://www.w3.org/1999/xlink" width="1024" height="1024"><svg version="1.1" width="1024" height="1024" id="svg102" xml:space="preserve" inkscape:version="1.4.2 (f4327f4, 2025-05-13)" xmlns:inkscape="http://www.inkscape.org/namespaces/inkscape" xmlns:sodipodi="http://sodipodi.sourceforge.net/DTD/sodipodi-0.dtd" xmlns="http://www.w3.org/2000/svg" xmlns:svg="http://www.w3.org/2000/svg"><defs id="defs102"><clipPath id="SvgjsClipPath1141"><rect width="1000" height="1000" x="0" y="0" rx="250" ry="250"></rect></clipPath></defs><sodipodi:namedview id="namedview102" bordercolor="#000000" borderopacity="0.25" inkscape:showpageshadow="2" inkscape:pageopacity="0.0" inkscape:pagecheckerboard="0" inkscape:deskcolor="#d1d1d1" inkscape:zoom="0.45093327" inkscape:cx="-304.92317" inkscape:cy="644.21949" inkscape:window-width="1920" inkscape:window-height="991" inkscape:window-x="-9" inkscape:window-y="-9" inkscape:window-maximized="1" inkscape:current-layer="svg102"></sodipodi:namedview><path d="m 311.06958,133.58645 c 40.37568,-0.15757 80.75128,-0.27591 121.1272,-0.34843 18.75009,-0.0346 37.49999,-0.0817 56.24996,-0.15889 16.35534,-0.0673 32.71054,-0.11048 49.06602,-0.12541 8.64845,-0.009 17.2965,-0.029 25.94483,-0.0783 8.16553,-0.0462 16.33053,-0.0596 24.49617,-0.0496 4.37363,-0.003 8.74721,-0.0386 13.1207,-0.0761 63.76779,0.21965 122.90665,30.53308 167.84374,74.38949 46.95812,47.57569 67.64824,109.75023 67.24826,175.546 0.0179,2.86935 0.0347,5.7387 0.0525,8.695 -0.0348,16.96026 -1.36597,32.76584 -5.09616,49.30663 -0.87555,4.20866 -0.87555,4.20866 -1.76877,8.50235 -14.65586,59.51373 -55.34422,114.8912 -107.85116,146.7203 -51.76379,29.30888 -98.6645,38.35317 -157.83204,37.83592 -4.51094,-0.0226 -9.02189,-0.043 -13.53284,-0.0612 -10.94721,-0.0452 -21.89298,-0.13299 -32.84035,-0.21901 0,-13.31515 0,-26.63031 0,-40.34896 -4.92384,0.0693 -4.92384,0.0693 -9.94714,0.14011 -11.05277,0.0157 -21.68726,-0.96802 -32.64343,-2.38171 -1.26986,-19.83806 -1.896,-35.74703 11.20804,-51.55701 12.47509,-13.24457 25.18313,-23.42847 43.67033,-25.55575 2.6864,-0.0303 5.3728,-0.0603 8.14061,-0.0915 2.20056,-0.0444 2.20056,-0.0444 4.44556,-0.0897 4.64472,-0.0908 9.28848,-0.13988 13.93388,-0.1818 45.04359,-0.52519 82.00926,-7.77237 116.34475,-39.1406 25.47884,-26.31019 36.725,-62.12567 36.47322,-98.2258 -1.40244,-34.33127 -17.27725,-67.14876 -41.85833,-90.99744 -27.31535,-22.25342 -59.10983,-31.35669 -93.74478,-31.54889 -2.70481,-0.0402 -5.4096,-0.0805 -8.19637,-0.12195 -8.5634,-0.1206 -17.12654,-0.19703 -25.69045,-0.27209 -5.83757,-0.0744 -11.67509,-0.15174 -17.51257,-0.23204 -14.24331,-0.18965 -28.48666,-0.34315 -42.73067,-0.46846 -0.74894,-1.54989 -1.49789,-3.09979 -2.26952,-4.69665 -0.99347,-2.0274 -1.98695,-4.0548 -3.01052,-6.14363 -0.98011,-2.01223 -1.96022,-4.02445 -2.97002,-6.09766 -3.19639,-5.91967 -6.70363,-10.1906 -11.92442,-14.44458 0.11703,3.00804 0.11703,3.00804 0.23642,6.07686 0.5948,26.56775 -2.90954,47.18033 -20.4109,67.89623 -18.78755,18.50472 -41.5611,21.21808 -66.91553,21.14643 -3.69488,0.0177 -3.69488,0.0177 -7.46439,0.0356 -5.17287,0.0143 -10.34582,0.0114 -15.51867,-0.008 -7.88563,-0.0191 -15.76764,0.0456 -23.65291,0.11657 -5.04946,0.004 -10.09892,0.002 -15.14838,-0.004 -2.33777,0.0252 -4.67555,0.0504 -7.08417,0.0763 -14.83592,-0.14079 -24.02794,-2.61104 -36.81984,-10.15474 -5.69184,-2.43909 -5.69184,-2.43909 -11.20804,-2.24161 -18.31159,8.63802 -32.44512,22.36849 -44.83218,38.10735 -7.08608,-3.07064 -8.95009,-4.45871 -13.44965,-11.20805 3.69865,-4.43838 7.39731,-8.87677 11.20804,-13.44965 -6.65758,-2.95892 -13.31516,-5.91785 -20.17448,-8.96644 1.47946,-4.43838 2.95892,-8.87677 4.48322,-13.44965 2.21919,0.73973 4.43838,1.47946 6.72482,2.24161 14.72845,4.0518 24.74299,4.03198 38.10736,-3.36241 3.01145,-1.83129 6.00879,-3.68704 8.96643,-5.60403 -1.13434,-4.86147 -2.24124,-8.96571 -4.48322,-13.44965 -1.57777,-10.4886 -2.23289,-20.40191 2.79326,-29.98152 4.0517,-5.24008 8.34187,-10.0428 12.89801,-14.85066 3.27188,-3.64004 6.5408,-7.28274 9.80704,-10.92784 1.69329,-1.85222 3.38658,-3.70443 5.13118,-5.61278 7.16779,-8.0428 13.89561,-16.4121 20.61229,-24.83282 4.79845,-5.70034 4.79845,-5.70034 10.58854,-10.426 7.29842,-8.73231 7.15592,-15.18964 7.23926,-26.23657 0.0564,-1.76697 0.11269,-3.53395 0.17075,-5.35447 0.13126,-4.33171 0.197,-8.66532 0.24955,-12.9987 z" fill="#2e4c6c" id="path2" style="stroke-width:2.24161"></path><path d="m 447.80772,319.63999 c 0.52403,33.08552 0.91911,66.17049 1.16143,99.25932 0.11551,15.36459 0.27293,30.7266 0.52963,46.08954 0.24759,14.82495 0.37757,29.64793 0.43572,44.47504 0.0414,5.65772 0.12235,11.3153 0.24327,16.97188 0.16267,7.92412 0.18515,15.83715 0.17474,23.76266 0.0806,2.34118 0.16119,4.68234 0.24422,7.09445 -0.0949,6.67813 -0.39102,11.64894 -2.78901,17.89052 -6.80312,6.11567 -14.05341,9.85214 -22.41609,13.44966 -3.44148,1.51703 -3.44148,1.51703 -6.95249,3.0647 -8.52987,1.86231 -16.57273,1.9032 -25.27064,1.69872 -1.64994,-0.0202 -3.29989,-0.0406 -4.99984,-0.0612 -4.03113,-0.0525 -8.06188,-0.1327 -12.09242,-0.219 0.0441,10.64161 0.16159,21.27921 0.34204,31.91939 0.0514,3.60592 0.0841,7.21215 0.0963,10.81838 0.12508,30.87758 4.46932,57.61551 25.29636,81.98673 13.37328,12.52322 29.61959,21.88663 45.99676,29.94651 0.5904,7.8891 0.94553,15.7725 1.26091,23.67699 0.25356,3.33097 0.25356,3.33097 0.51224,6.7292 0.48252,16.1377 0.48252,16.1377 -5.41795,23.38749 -5.29741,4.20703 -10.7451,7.70636 -16.52968,11.21298 -4.29611,2.9077 -8.58647,5.82388 -12.87174,8.74752 -4.57719,3.02308 -9.15973,6.03806 -13.74737,9.04525 -15.62958,10.26377 -31.01371,20.72661 -46.08323,31.79899 -8.25885,6.03822 -16.65448,11.86569 -25.08785,17.65651 -2.37089,1.64271 -2.37089,1.64271 -4.78969,3.31863 -11.46948,7.88941 -11.46948,7.88941 -13.98378,7.88941 0,-181.97381 0,-363.94762 0,-551.43579 30.32897,-0.73973 60.65793,-1.47946 91.90596,-2.24161 15.3835,-4.73338 28.73694,-17.93287 44.83218,-17.93287 z" fill="#2d4b6c" id="path3" style="stroke-width:2.24161"></path><path d="m 535.23047,299.46551 c 5.31008,2.3474 9.91286,4.73534 14.85066,7.70553 1.47513,0.85911 2.95025,1.71821 4.47008,2.60335 5.5385,3.25025 11.0413,6.55677 16.545,9.8656 3.7178,2.21703 3.7178,2.21703 7.51071,4.47884 8.34413,4.97644 16.67068,9.9817 24.99262,14.99514 1.3623,0.81827 2.7246,1.63654 4.12818,2.4796 41.86189,25.19438 41.86189,25.19438 46.30802,34.08664 0.94321,10.61108 -0.38913,16.12585 -6.72482,24.6577 -5.05657,3.58892 -9.87732,6.67236 -15.2447,9.70196 -1.50821,0.88164 -3.01642,1.76328 -4.57033,2.67163 -4.82215,2.81279 -9.66441,5.58843 -14.50961,8.36129 -6.3022,3.64327 -12.59556,7.3016 -18.88731,10.96287 -1.54739,0.89676 -3.09478,1.79352 -4.68906,2.71746 -13.19698,7.69215 -26.02204,15.88191 -38.78753,24.26722 -10.16225,6.45689 -16.53701,10.07252 -28.84156,8.56584 -7.48162,-4.82149 -10.61337,-7.1824 -13.44966,-15.69126 -0.24391,-4.44311 -0.3562,-8.89388 -0.39677,-13.34349 -0.0288,-2.74579 -0.0575,-5.49159 -0.0872,-8.32059 -0.0184,-3.00013 -0.035,-6.00028 -0.0502,-9.00044 -0.009,-1.51314 -0.0184,-3.02629 -0.0277,-4.58529 -0.0467,-8.00679 -0.0788,-16.01349 -0.0998,-24.02039 -0.0248,-8.25905 -0.10195,-16.51675 -0.19092,-24.77532 -0.0587,-6.36153 -0.0774,-12.72274 -0.0854,-19.08451 -0.011,-3.04401 -0.0369,-6.08801 -0.0785,-9.13176 -0.0547,-4.26446 -0.0471,-8.52958 -0.037,-12.79438 -0.0132,-2.42379 -0.0263,-4.84758 -0.0399,-7.34481 1.357,-8.16517 4.37338,-11.88698 10.05979,-17.78682 6.39744,-3.19872 10.80743,-2.84245 17.93287,-2.24161 z" fill="#67c246" id="path4" style="stroke-width:2.24161"></path><path d="m 478.34088,604.46442 c 8.56906,2.37754 16.67069,3.42006 25.50706,4.34312 0.13127,8.96629 0.21022,17.93234 0.2802,26.8993 0.0376,2.5226 0.0751,5.0452 0.11383,7.64424 0.16571,28.33637 -6.06156,47.08027 -25.75223,67.86996 -8.63481,8.13812 -17.61331,15.85025 -28.44042,20.87499 -17.83153,-1.11447 -34.28092,-20.1727 -45.71656,-32.76602 -13.06129,-19.38538 -13.71807,-36.16486 -13.12567,-59.28005 0.0451,-3.03983 0.086,-6.07972 0.12259,-9.11967 0.105,-7.37594 0.25201,-14.74848 0.43782,-22.12275 2.2452,-0.40743 4.49039,-0.81486 6.80363,-1.23464 3.00942,-0.56821 6.01866,-1.13742 9.02773,-1.70747 1.47224,-0.2644 2.94448,-0.5288 4.46133,-0.8012 7.73527,-1.48609 14.65178,-3.35464 21.85131,-6.58911 14.88494,-6.47013 29.81421,1.1116 44.42938,5.9893 z" fill="#6bc84f" id="path6" style="stroke-width:2.24161"></path><path d="m 725.76722,516.90157 c 19.233,0 38.46601,0 58.28183,0 0,22.41609 0,22.41609 -3.86152,28.95703 -1.73086,1.67885 -3.46171,3.35769 -5.24501,5.08741 -1.86378,1.8551 -3.72756,3.71021 -5.64781,5.62153 -2.68297,2.55727 -2.68297,2.55727 -5.42014,5.16621 -1.25696,1.38121 -2.51393,2.76243 -3.80898,4.1855 -20.86623,22.81094 -49.21873,36.87156 -76.88894,49.61311 -3.04705,1.42167 -3.04705,1.42167 -6.15567,2.87206 -20.0197,8.67849 -41.52511,13.37344 -63.33421,12.8192 0,-1.47946 0,-2.95892 0,-4.48321 2.329,-0.81486 4.658,-1.62972 7.05757,-2.46928 30.71174,-10.97348 59.55286,-24.00081 77.77332,-52.39761 4.5608,-9.95362 4.55851,-19.45314 4.83347,-30.31425 7.39731,0 14.79462,0 22.41609,0 0,-8.13704 0,-16.27408 0,-24.6577 z" fill="#69bf4b" id="path10" style="stroke-width:2.24161"></path><path d="m 478.34088,604.46442 c 8.56906,2.37754 16.67069,3.42006 25.50706,4.34312 0.13127,8.96629 0.21022,17.93234 0.2802,26.8993 0.0376,2.5226 0.0751,5.0452 0.11383,7.64424 0.16571,28.33637 -6.06156,47.08027 -25.75223,67.86996 -8.63481,8.13812 -17.61331,15.85025 -28.44042,20.87499 -17.83153,-1.11447 -34.28092,-20.1727 -45.71656,-32.76602 -13.06129,-19.38538 -13.71807,-36.16486 -13.12567,-59.28005 0.0451,-3.03983 0.086,-6.07972 0.12259,-9.11967 0.105,-7.37594 0.25201,-14.74848 0.43782,-22.12275 2.2452,-0.40743 4.49039,-0.81486 6.80363,-1.23464 3.00942,-0.56821 6.01866,-1.13742 9.02773,-1.70747 1.47224,-0.2644 2.94448,-0.5288 4.46133,-0.8012 7.73527,-1.48609 14.65178,-3.35464 21.85131,-6.58911 14.88494,-6.47013 29.81421,1.1116 44.42938,5.9893 z m -51.88099,11.61959 c -7.00725,2.13312 -13.98611,3.02229 -21.24274,3.93157 -0.33016,8.12485 -0.52616,16.24793 -0.70051,24.3775 -0.0939,2.2712 -0.18782,4.54241 -0.28458,6.88244 -0.31383,19.58339 4.48627,33.73941 17.3068,48.66743 2.46192,2.04582 2.46192,2.04582 4.97357,4.13297 1.64128,1.41011 3.28256,2.82022 4.97357,4.27306 5.52043,3.85674 9.74374,6.50025 16.32171,8.05578 15.59403,-6.89498 30.92414,-20.8836 38.24198,-36.43106 2.30969,-6.75208 2.62092,-11.90495 2.5448,-19.02249 -0.0217,-3.58668 -0.0217,-3.58668 -0.0438,-7.24582 -0.0376,-2.47203 -0.0751,-4.94406 -0.11383,-7.491 -0.0202,-2.51538 -0.0405,-5.03075 -0.0613,-7.62235 -0.0527,-6.19264 -0.12637,-12.3843 -0.2189,-18.57646 -1.64995,-0.27162 -3.2999,-0.54324 -4.99984,-0.82309 -3.28111,-0.56347 -3.28111,-0.56347 -6.62851,-1.13832 -2.15851,-0.36408 -4.31702,-0.72817 -6.54095,-1.10329 -6.29437,-1.3761 -11.76468,-3.42932 -17.69645,-5.90173 -9.47985,-1.31665 -17.07656,1.73999 -25.83104,5.03486 z" fill="#385172" id="path12" style="stroke-width:2.24161"></path><path d="m 606.96195,133.58645 c 39.89617,-2.39377 81.05497,15.77596 114.79927,35.77599 2.6721,1.55508 5.37916,3.05157 8.11708,4.4876 9.27217,4.88668 16.58126,9.50115 22.78823,18.01824 2.49557,12.71294 0.12501,25.53825 -2.24161,38.10735 -8.13704,0 -16.27408,0 -24.6577,0 0,-8.13704 0,-16.27408 0,-24.6577 -17.75354,0 -35.50708,0 -53.79861,0 0,-8.13704 0,-16.27408 0,-24.65769 8.13704,0 16.27408,0 24.6577,0 -22.36997,-24.08431 -57.76826,-38.98456 -89.66436,-44.83218 0,-0.73973 0,-1.47946 0,-2.24161 z" fill="#67c346" id="path16" style="stroke-width:2.24161"></path><path d="m 345.11401,195.65099 c 9.98054,0.81808 14.30627,3.40803 21.99579,9.66694 5.56784,8.35176 5.33597,12.52412 4.48322,22.41609 -2.77862,6.25188 -5.12098,9.9606 -10.50755,14.15015 -7.76678,2.30905 -15.16149,2.86696 -23.11659,1.54111 -6.299,-4.02064 -10.10832,-6.76699 -13.44965,-13.44965 -0.94302,-6.85711 -1.09903,-13.33216 0,-20.17448 5.46392,-6.72483 5.46392,-6.72483 11.20804,-11.20805 2.24161,-2.24161 2.24161,-2.24161 9.38674,-2.94211 z" fill="#f8f9f8" id="path19" style="stroke-width:2.24161"></path><path d="m 759.39136,467.58617 c 8.13704,0 16.27408,0 24.6577,0 0,8.87677 0,17.75354 0,26.89931 -8.13704,0 -16.27408,0 -24.6577,0 0,-8.87677 0,-17.75355 0,-26.89931 z" fill="#61ae4d" id="path32" style="stroke-width:2.24161"></path><path d="m 757.14975,247.9085 c 8.13704,0 16.27408,0 24.6577,0 0,8.13704 0,16.27408 0,24.6577 -8.13704,0 -16.27408,0 -24.6577,0 0,-8.13704 0,-16.27408 0,-24.6577 z" fill="#6fc14d" id="path35" style="stroke-width:2.24161"></path><path d="m 382.80106,433.96204 c 14.79462,0 29.58924,0 44.83218,0 0,4.43839 0,8.87677 0,13.44965 -14.79462,0 -29.58924,0 -44.83218,0 0,-4.43838 0,-8.87677 0,-13.44965 z" fill="#e7ebee" id="path36" style="stroke-width:2.24161"></path><path d="m 331.24406,433.96204 c 14.05489,0 28.10978,0 42.59057,0 0,4.43839 0,8.87677 0,13.44965 -14.05489,0 -28.10978,0 -42.59057,0 0,-4.43838 0,-8.87677 0,-13.44965 z" fill="#57b34a" id="path38" style="stroke-width:2.24161"></path><path d="m 671.96861,543.80088 c 8.13704,0 16.27408,0 24.6577,0 0,7.39731 0,14.79462 0,22.41609 -8.13704,0 -16.27408,0 -24.6577,0 0,-7.39731 0,-14.79462 0,-22.41609 z" fill="#70cf4a" id="path39" style="stroke-width:2.24161"></path><path d="m 725.76722,469.82778 c 7.39731,0 14.79462,0 22.41609,0 0,7.39731 0,14.79462 0,22.41609 -7.39731,0 -14.79462,0 -22.41609,0 0,-7.39731 0,-14.79462 0,-22.41609 z" fill="#6fc34c" id="path41" style="stroke-width:2.24161"></path><path d="m 268.47901,427.23721 c 7.39731,0 14.79462,0 22.41609,0 0,7.39731 0,14.79462 0,22.41609 -7.39731,0 -14.79462,0 -22.41609,0 0,-7.39731 0,-14.79462 0,-22.41609 z" fill="#ECC260" id="path42" style="fill:#e8b04a;fill-opacity:1;stroke-width:2.24161"></path><path d="m 358.14336,413.78756 c 14.05489,0 28.10978,0 42.59057,0 0,3.69865 0,7.39731 0,11.20804 -14.05489,0 -28.10978,0 -42.59057,0 0,-3.69865 0,-7.3973 0,-11.20804 z" fill="#E49F44" id="path43" style="fill:#e8b04a;fill-opacity:1;stroke-width:2.24161"></path><path d="m 385.04267,391.37147 c 14.05489,0 28.10978,0 42.59057,0 0,3.69865 0,7.39731 0,11.20804 -14.05489,0 -28.10978,0 -42.59057,0 0,-3.69865 0,-7.3973 0,-11.20804 z" fill="#f4f6f7" id="path44" style="stroke-width:2.24161"></path><path d="m 331.24406,391.37147 c 14.05489,0 28.10978,0 42.59057,0 0,3.69865 0,7.39731 0,11.20804 -14.05489,0 -28.10978,0 -42.59057,0 0,-3.69865 0,-7.3973 0,-11.20804 z" fill="#ECA838" id="path45" style="fill:#e8b04a;fill-opacity:1;stroke-width:2.24161"></path><path d="m 358.14336,371.19699 c 14.05489,0 28.10978,0 42.59057,0 0,3.69865 0,7.39731 0,11.20804 -14.05489,0 -28.10978,0 -42.59057,0 0,-3.69865 0,-7.3973 0,-11.20804 z" fill="#3d993b" id="path46" style="stroke-width:2.24161"></path><path d="m 246.06292,407.06273 c 7.39731,0 14.79462,0 22.41609,0 0,6.65758 0,13.31516 0,20.17448 -7.39731,0 -14.79462,0 -22.41609,0 0,-6.65758 0,-13.31516 0,-20.17448 z" fill="#E9BA51" id="path50" style="fill:#e8b04a;fill-opacity:1;stroke-width:2.24161"></path><path d="m 268.47901,384.64664 c 7.39731,0 14.79462,0 22.41609,0 0,6.65758 0,13.31516 0,20.17448 -7.39731,0 -14.79462,0 -22.41609,0 0,-6.65758 0,-13.31516 0,-20.17448 z" fill="#EABE53" id="path51" style="fill:#e8b04a;fill-opacity:1;stroke-width:2.24161" inkscape:label="path51"></path><path d="m 331.24406,413.78756 c 5.17812,0 10.35623,0 15.69126,0 0,3.69865 0,7.39731 0,11.20804 -5.17811,0 -10.35623,0 -15.69126,0 0,-3.69865 0,-7.3973 0,-11.20804 z" fill="#fafbfb" id="path73" style="stroke-width:2.24161"></path><path d="m 331.24406,371.19699 c 5.17812,0 10.35623,0 15.69126,0 0,3.69865 0,7.39731 0,11.20804 -5.17811,0 -10.35623,0 -15.69126,0 0,-3.69865 0,-7.3973 0,-11.20804 z" fill="#DF9D36" id="path74" style="fill:#e8b04a;fill-opacity:1;stroke-width:2.24161"></path><path d="m 481.43185,696.23028 c 1.47946,0.73973 2.95892,1.47946 4.48322,2.24161 -2.88091,6.42664 -5.76383,11.15442 -11.20805,15.69126 -1.47946,0 -2.95892,0 -4.48321,0 1.21555,-8.5089 4.93439,-12.26635 11.20804,-17.93287 z" fill="#2b4a74" id="path86" style="stroke-width:2.24161"></path><path d="m 471.03785,617.07829 c 6.63781,1.86818 12.9135,2.68735 19.75835,3.41267 0.10132,7.04535 0.16274,14.09051 0.21721,21.13642 0.0294,1.98217 0.0581,3.96431 0.0881,6.00655 0.12845,22.26563 -4.69543,36.99388 -19.94821,53.3296 -6.68869,6.39462 -13.64364,12.45452 -22.03053,16.40277 -13.81268,-0.8757 -26.55475,-15.85095 -35.41301,-25.74629 -10.11752,-15.23227 -10.62632,-28.41694 -10.16744,-46.57998 0.035,-2.38855 0.0666,-4.77723 0.095,-7.16589 0.0816,-5.7957 0.19525,-11.5888 0.33914,-17.38318 1.73919,-0.32015 3.47837,-0.64029 5.27022,-0.97015 2.33116,-0.44648 4.66219,-0.89375 6.9931,-1.34167 1.1404,-0.20779 2.28082,-0.4155 3.45583,-0.62953 5.99191,-1.16774 11.34955,-2.63595 16.92647,-5.17749 11.53019,-5.08397 23.09472,0.87344 34.4159,4.70617 z m -40.18806,9.13023 c -5.42799,1.67614 -10.83399,2.37478 -16.45507,3.08927 -0.25579,6.3842 -0.40761,12.76702 -0.54262,19.15489 -0.0729,1.78463 -0.14548,3.56927 -0.22035,5.40795 -0.24315,15.3879 3.47512,26.51115 13.40619,38.24101 1.90707,1.60753 1.90707,1.60753 3.85263,3.24754 1.27135,1.108 2.54272,2.21601 3.8526,3.35761 4.2763,3.03048 7.54773,5.10762 12.64317,6.32992 12.07947,-5.41781 23.95446,-16.40956 29.62304,-28.62615 1.78914,-5.30551 2.03021,-9.35443 1.97123,-14.94711 -0.0157,-2.81829 -0.0157,-2.81829 -0.0339,-5.69351 -0.0294,-1.94242 -0.0583,-3.88484 -0.0883,-5.88615 -0.0134,-1.97647 -0.0314,-3.95294 -0.0473,-5.98931 -0.0408,-4.86597 -0.098,-9.73114 -0.16946,-14.59669 -1.2781,-0.2134 -2.55618,-0.42687 -3.87299,-0.64677 -2.5416,-0.44274 -2.5416,-0.44274 -5.13458,-0.89444 -1.67202,-0.28608 -3.34406,-0.57215 -5.06675,-0.86692 -4.87577,-1.08129 -9.11322,-2.69464 -13.70805,-4.63733 -7.34326,-1.03462 -13.22787,1.36722 -20.00925,3.95619 z" fill="#385172" id="path102" style="fill:#ffffff;fill-opacity:1;stroke:none;stroke-width:0;stroke-dasharray:none"></path><path d="m 440.55026,644.95012 c 2.4076,-4.31902 3.61135,-6.47852 5.41118,-6.47852 1.79986,0 3.0036,2.1595 5.41111,6.47852 l 0.62288,1.11737 c 0.68429,1.22733 1.02623,1.84101 1.55977,2.24592 0.53335,0.4049 1.19749,0.5552 2.52612,0.8558 l 1.20966,0.27368 c 4.67512,1.05781 7.01287,1.58672 7.56904,3.37519 0.55617,1.78837 -1.03744,3.65207 -4.22483,7.37908 l -0.82455,0.96427 c -0.90572,1.0591 -1.35869,1.58866 -1.56245,2.24385 -0.20354,0.6552 -0.13517,1.36172 0.002,2.77494 l 0.12463,1.28643 c 0.48186,4.97279 0.72288,7.45918 -0.73312,8.56447 -1.45617,1.10532 -3.64492,0.0975 -8.02238,-1.91787 l -1.13248,-0.52156 c -1.24385,-0.5727 -1.86578,-0.85914 -2.52517,-0.85914 -0.65937,0 -1.28131,0.28644 -2.52518,0.85914 l -1.13246,0.52156 c -4.3775,2.01538 -6.56623,3.02319 -8.02229,1.91787 -1.45604,-1.10529 -1.21511,-3.59168 -0.73321,-8.56447 l 0.12464,-1.28643 c 0.13696,-1.41322 0.20533,-2.11974 0.002,-2.77494 -0.20376,-0.65519 -0.65659,-1.18475 -1.56231,-2.24385 l -0.8246,-0.96427 c -3.1873,-3.72701 -4.78095,-5.59071 -4.22481,-7.37908 0.55617,-1.78847 2.89381,-2.31738 7.56909,-3.37519 l 1.20957,-0.27368 c 1.32856,-0.3006 1.99283,-0.4509 2.5262,-0.8558 0.53337,-0.40491 0.87548,-1.01857 1.55965,-2.24592 z" fill="#1c274c" id="path1" style="fill:#ffffff;fill-opacity:1;stroke-width:1.90077"></path></svg></svg></g></g></svg></g></svg>